<svg id="Capa_1" enable-background="new 0 0 512 512" height="512" viewBox="0 0 512 512" width="512" xmlns="http://www.w3.org/2000/svg"><g><path d="m195.472 320.728c-15.291 6.794-29.707 15.57-42.896 26.618-28.417 23.803-52.709 70.649-36.284 107.468 19.386 43.454 70.13 57.428 114.122 57.183 39.816-.22 176.301 1.109 204.066-5.104 27.921-6.248 53.876-17.768 68.078-43.689 18.048-32.941 6.257-71.747-16.778-98.57-65.382-76.132-204.214-82.158-290.308-43.906z" fill="#3e5959"/><path d="m502.557 463.205c-14.204 25.923-40.157 37.442-68.073 43.692-4.938 1.112-13.322 1.973-23.98 2.654 26.524-6.831 50.634-18.971 64.307-43.923 18.801-34.307 11.866-73.353-12.123-101.299-29.839-34.738-79.699-56.833-127.848-65.808 58.497 4.187 115.511 24.851 150.94 66.109 23.037 26.826 34.827 65.63 16.777 98.575z" fill="#384949"/><path d="m184.207 187.548c-19.107 16.082-33.504 40.658-30.65 66.362 5.327 47.97 64.792 59.082 103.065 64.411 52.71 7.339 109.055 4.387 159.038-14.96 14.143-5.475 28.405-11.506 40.983-20.093 31.588-21.566 41.297-62.641 28.873-97.81-15.562-44.053-55.765-59.337-99.57-61.786-68.784-3.846-148.559 19.12-201.739 63.876z" fill="#537983"/><path d="m456.641 283.267c-12.58 8.589-26.841 14.622-40.978 20.097-.392.155-.784.299-1.186.454 7.61-3.671 15.003-7.795 21.891-12.724 31.584-22.623 41.297-65.705 28.872-102.599-15.57-46.206-55.764-62.23-99.578-64.797-1.691-.103-3.382-.175-5.094-.237 8.579-.32 17.055-.248 25.376.216 43.803 2.444 84.007 17.725 99.567 61.786 12.427 35.161 2.724 76.242-28.87 97.804z" fill="#496d75"/><g><g><g><path d="m105.079 302.906c-9.472-5.34-20.597-2.038-27.65 5.261-8.668 8.971-13.147 21.296-12.347 33.731 1.651 25.688 19.944 44.057 19.944 44.057h9.825 9.825s18.257-18.332 19.939-43.982c.846-12.889-6.932-31.961-19.536-39.067z" fill="#fe4fb7"/><path d="m124.614 341.977c-1.682 25.651-19.939 43.974-19.939 43.974h-19.654s-.133-.133-.39-.409c2.642-2.813 18.01-20.129 19.549-43.566.846-12.897-6.938-31.962-19.54-39.071-.019-.009-.038-.019-.057-.029 6.311-3.203 13.819-3.735 20.49.029 12.613 7.11 20.387 26.175 19.541 39.072z" fill="#fe2aa8"/></g><g><path d="m84.59 507.616c9.472 5.34 20.597 2.038 27.65-5.261 8.668-8.971 13.147-21.296 12.347-33.731-1.651-25.688-19.944-44.057-19.944-44.057h-9.825-9.825s-18.257 18.332-19.939 43.982c-.846 12.888 6.932 31.961 19.536 39.067z" fill="#feaee1"/><path d="m65.054 468.545c1.682-25.651 19.939-43.974 19.939-43.974h19.654s.133.133.39.409c-2.642 2.813-18.01 20.129-19.549 43.566-.846 12.897 6.938 31.962 19.54 39.071.019.01.038.019.057.029-6.311 3.203-13.819 3.735-20.49-.029-12.612-7.11-20.387-26.175-19.541-39.072z" fill="#fe93d3"/></g></g><g><g><path d="m10.965 345.503c-9.361 5.533-12.064 16.819-9.268 26.576 3.435 11.992 11.87 22.033 23.039 27.559 23.072 11.414 48.127 4.756 48.127 4.756l4.913-8.509 4.913-8.509s-6.748-24.977-28.12-39.259c-10.742-7.176-31.148-9.976-43.604-2.614z" fill="#feaee1"/><path d="m54.569 348.12c21.373 14.282 28.113 39.255 28.113 39.255l-9.827 17.021s-.182.049-.549.133c-1.115-3.695-8.427-25.662-27.954-38.713-10.746-7.181-31.149-9.972-43.606-2.613-.018.012-.036.023-.053.035.382-7.066 3.675-13.835 10.27-17.731 12.463-7.367 32.86-4.568 43.606 2.613z" fill="#fe93d3"/></g><g><path d="m178.703 465.018c9.361-5.533 12.064-16.819 9.268-26.576-3.435-11.992-11.87-22.033-23.039-27.559-23.072-11.414-48.127-4.756-48.127-4.756l-4.913 8.509-4.913 8.509s6.748 24.977 28.12 39.259c10.742 7.176 31.148 9.977 43.604 2.614z" fill="#fe4fb7"/><path d="m135.099 462.401c-21.373-14.282-28.113-39.255-28.113-39.255l9.827-17.021s.182-.049.549-.133c1.115 3.695 8.427 25.662 27.954 38.713 10.746 7.181 31.149 9.972 43.606 2.613.018-.012.036-.023.053-.035-.382 7.066-3.675 13.835-10.27 17.731-12.462 7.368-32.86 4.568-43.606-2.613z" fill="#fe2aa8"/></g></g><g><g><path d="m.721 447.274c.111 10.874 8.533 18.857 18.381 21.315 12.103 3.021 25.016.737 35.386-6.173 21.421-14.274 28.183-39.301 28.183-39.301l-4.913-8.509-4.913-8.509s-25.005-6.645-48.059 4.723c-11.585 5.714-24.213 21.986-24.065 36.454z" fill="#fe4fb7"/><path d="m24.789 410.821c23.055-11.369 48.052-4.719 48.052-4.719l9.827 17.021s-.049.182-.159.542c-3.757-.882-26.437-5.532-47.504 4.853-11.592 5.716-24.211 21.989-24.066 36.457.001.021.003.042.004.064-5.929-3.864-10.144-10.1-10.22-17.759-.149-14.478 12.474-30.743 24.066-36.459z" fill="#fe2aa8"/></g><g><path d="m188.948 363.247c-.111-10.873-8.533-18.857-18.381-21.315-12.103-3.021-25.016-.737-35.386 6.173-21.421 14.274-28.183 39.301-28.183 39.301l4.913 8.509 4.913 8.509s25.005 6.645 48.059-4.723c11.584-5.713 24.213-21.985 24.065-36.454z" fill="#feaee1"/><path d="m164.879 399.701c-23.055 11.369-48.052 4.719-48.052 4.719l-9.827-17.021s.049-.182.159-.542c3.757.882 26.437 5.532 47.504-4.852 11.592-5.716 24.211-21.989 24.066-36.457-.001-.021-.003-.042-.004-.064 5.929 3.864 10.144 10.1 10.22 17.759.15 14.477-12.474 30.742-24.066 36.458z" fill="#fe93d3"/></g></g><circle cx="94.834" cy="405.261" fill="#eaf6ff" r="30.308"/><path d="m125.146 405.263c0 16.736-13.572 30.308-30.308 30.308-8.782 0-16.689-3.735-22.22-9.703 1.701.304 3.45.456 5.227.456 16.736 0 30.308-13.572 30.308-30.308 0-7.955-3.07-15.197-8.088-20.604 14.247 2.471 25.081 14.892 25.081 29.851z" fill="#d8ecfe"/></g><path d="m268.118 6.716c-34.944 10.318-64.667 31.353-69.768 68.85-3.185 23.415 8.438 44.807 27.728 58.692 43.214 31.1 120.202 36.375 169.702 18.48 64.331-23.257 66.81-99.131 8.557-131.719-37.084-20.744-92.014-27.355-136.219-14.303z" fill="#8ebac5"/><path d="m395.783 152.738c-34.028 12.302-81.038 13.652-121.139 3.197 34.1 4.929 70.304 2.155 97.938-7.837 64.333-23.252 66.808-99.134 8.559-131.719-10.879-6.084-23.294-10.961-36.533-14.467 21.829 3.011 42.679 9.559 59.734 19.107 58.249 32.584 55.774 108.466-8.559 131.719z" fill="#7ca1b1"/></g></svg>