<?xml version="1.0" encoding="iso-8859-1"?>
<!-- Generator: Adobe Illustrator 18.0.0, SVG Export Plug-In . SVG Version: 6.00 Build 0)  -->
<!DOCTYPE svg PUBLIC "-//W3C//DTD SVG 1.1//EN" "http://www.w3.org/Graphics/SVG/1.1/DTD/svg11.dtd">
<svg version="1.1" id="Capa_1" xmlns="http://www.w3.org/2000/svg" xmlns:xlink="http://www.w3.org/1999/xlink" x="0px" y="0px"
	 viewBox="0 0 469.777 469.777" style="enable-background:new 0 0 469.777 469.777;" xml:space="preserve">
<g id="XMLID_83_">
	<path id="XMLID_84_" d="M219,249.659V211.68c-24.916,17.217-65.244,25.337-103.756,25.337c-38.512,0-78.854-8.12-103.771-25.337
		v151.19c0,16.749,24.057,31.172,58.827,37.987C73.453,341.641,136.26,273.548,219,249.659z"/>
	<path id="XMLID_85_" d="M115.244,212.564c57.299,0,103.756-18.89,103.756-42.206c0-12.736-13.947-24.136-35.917-31.874
		c-14.806,21.662-39.675,35.926-67.839,35.926c-28.163,0-53.031-14.273-67.854-35.934c-21.955,7.739-35.917,19.138-35.917,31.881
		C11.474,193.674,57.93,212.564,115.244,212.564z"/>
	<path id="XMLID_86_" d="M94.039,145.809c-4.283-4.944-6.975-11.312-6.975-18.373c0-15.554,24.805-35.392,28.148-52.968
		c3.916,17.752,28.18,37.414,28.18,52.968c0,7.061-2.69,13.445-6.989,18.388c21.381-8.453,36.554-29.19,36.554-53.573
		c0-25.789-32.592-57.092-49.234-87.364c-3.628-6.599-13.11-6.477-16.715,0.135c-16.403,30.09-49.476,61.517-49.476,87.229
		C57.533,116.618,72.673,137.346,94.039,145.809z"/>
	<path id="XMLID_87_" d="M280.437,273.445c-98.245,0-177.897,77.835-177.897,132.045c0,54.225,79.652,64.287,177.897,64.287
		c98.23,0,177.866-10.062,177.866-64.287C458.303,351.28,378.667,273.445,280.437,273.445z M409.427,372.622
		c-3.137,2.914-7.118,4.353-11.081,4.353c-4.379,0-8.741-1.751-11.956-5.214c-22.847-24.628-54.624-40.024-87.166-42.253
		c-8.979-0.613-15.762-8.389-15.156-17.377c0.621-8.963,8.278-15.585,17.385-15.148c40.74,2.778,80.415,21.955,108.85,52.602
		C416.416,356.184,416.034,366.501,409.427,372.622z"/>
</g>
<g>
</g>
<g>
</g>
<g>
</g>
<g>
</g>
<g>
</g>
<g>
</g>
<g>
</g>
<g>
</g>
<g>
</g>
<g>
</g>
<g>
</g>
<g>
</g>
<g>
</g>
<g>
</g>
<g>
</g>
</svg>
