<svg xmlns="http://www.w3.org/2000/svg" fill="none" viewBox="0 0 40 40"><path fill="#ed1e79" fill-rule="evenodd" d="M38.333 17.113C37.486 27.163 31.241 33.221 20.75 35c.346-12.454 8.355-16.003 17.584-17.887zm-25.37 1.714c.69-5.736 1.618-10.07 7.12-13.827 3.94 3.23 6.02 5.17 6.992 13.892-2.9.721-5.488 3.967-7.024 8.927-1.483-4.88-3.87-7.822-7.087-8.992zm16.075-.64-1.059-5.155c1.788-1.59 4.894-2.457 7.95-3.289.071 1.897-.204 3.982-.4 6.037-2.373.411-4.512 1.247-6.49 2.407zm-17.999 0 1.06-5.155c-1.788-1.59-4.894-2.457-7.95-3.289-.071 1.897.203 3.982.4 6.037 2.372.411 4.515 1.247 6.49 2.407zm-9.372-1.074C2.514 27.163 8.76 33.221 19.25 35c-.346-12.454-8.355-16.003-17.584-17.887z" clip-rule="evenodd"/></svg>