<svg width="40" height="40" viewBox="0 0 40 40" fill="none" xmlns="http://www.w3.org/2000/svg">
<path fill-rule="evenodd" clip-rule="evenodd" d="M38.3334 17.1132C37.486 27.1627 31.2406 33.2209 20.7491 35C21.0952 22.5464 29.1041 18.9975 38.3334 17.1132ZM12.9639 18.8274C13.6532 13.091 14.5812 8.75619 20.0836 5C24.0224 8.2302 26.1022 10.1702 27.075 18.8923C24.1746 19.6132 21.5875 22.8589 20.0508 27.8187C18.5678 22.9394 16.1806 19.9969 12.9639 18.8274ZM29.0384 18.1869L27.9791 13.0322C29.7665 11.4418 32.8728 10.5755 35.9284 9.74319C36 11.6399 35.7255 13.7252 35.5285 15.7797C33.1563 16.1912 31.0168 17.0266 29.0384 18.1869ZM11.0393 18.1869L12.0986 13.0322C10.3112 11.4418 7.20494 10.5755 4.14939 9.74319C4.07777 11.6399 4.3523 13.7252 4.54924 15.7797C6.92147 16.1912 9.06394 17.0266 11.0393 18.1869ZM1.66675 17.1132C2.51419 27.1627 8.75958 33.2209 19.2511 35C18.905 22.5464 10.8961 18.9975 1.66675 17.1132Z" fill="#D9257A"/>
</svg>
