<?xml version="1.0" encoding="utf-8"?>
<!-- Generator: Adobe Illustrator 21.0.0, SVG Export Plug-In . SVG Version: 6.00 Build 0)  -->
<svg xmlns="http://www.w3.org/2000/svg" xmlns:xlink="http://www.w3.org/1999/xlink" version="1.1" id="Layer_1" x="0px" y="0px" viewBox="0 0 64 64" style="enable-background:new 0 0 64 64;" xml:space="preserve" width="512" height="512">
<style type="text/css">
	.st0{fill:#FF8CC2;}
	.st1{fill:#D9257A;}
	.st2{fill:#E67A18;}
	.st3{fill:#941953;}
</style>
<g>
	<path class="st0" d="M21.3,37.4c-2.1,1.3-4.5,2.1-6.9,2.4L12.1,42c-4,3.9-6.8,8.9-8,14.3L3,61l4.5-1c5.5-1.3,10.6-4.1,14.5-8.2h0.1   c0.2-0.6,0.3-1.2,0.2-1.8c-0.3-1.3-2.2-2.5-2.2-3.9s1.9-2.6,2.2-3.9c0.3-1.4-1-3.3-0.4-4.5L21.3,37.4z"/>
	<path class="st0" d="M42.1,37.6c0.6,1.2-0.7,3.1-0.4,4.5c0.3,1.3,2.2,2.5,2.2,3.9s-1.9,2.6-2.2,3.9c-0.1,0.6,0,1.2,0.2,1.8H42   c0,0,8.9,7,14.5,8.2l4.5,1l-1.1-4.7c-1.3-5.4-4-10.4-8-14.3l-2.3-2.2c-2.4-0.3-4.8-1.1-6.9-2.4L42.1,37.6z"/>
	<path class="st1" d="M25.9,34.7c-0.1,0.2-0.2,0.3-0.3,0.5c-0.9,1-3.1,1.2-3.7,2.5c-0.6,1.2,0.7,3.1,0.4,4.5   c-0.3,1.3-2.2,2.5-2.2,3.9s1.9,2.6,2.2,3.9c0.3,1.4-1,3.3-0.4,4.5c0.6,1.3,2.8,1.5,3.7,2.5c0.9,1.1,0.9,3.3,2.1,4   c1.2,0.6,3-0.7,4.4-0.7s3.1,1.3,4.4,0.7c1.2-0.6,1.1-2.9,2.1-4c0.9-1,3.1-1.2,3.7-2.5c0.6-1.2-0.7-3.1-0.4-4.5   c0.3-1.3,2.2-2.5,2.2-3.9s-1.9-2.6-2.2-3.9c-0.3-1.4,1-3.3,0.4-4.5c-0.6-1.3-2.8-1.5-3.7-2.5c-0.1-0.1-0.2-0.3-0.3-0.5"/>
	<path class="st2" d="M37,41v-4c0,2.8-2.2,5-5,5s-5-2.2-5-5v4c0,2.8,2.2,5,5,5S37,43.8,37,41z"/>
	<path class="st0" d="M52,15L52,15c-4.8,0.1-9.1,2.3-12,5.9l-0.5,0.6C38.6,14.8,36,8.5,32,3c-4,5.5-6.6,11.8-7.6,18.5L24,20.9   c-2.9-3.7-7.2-5.9-11.9-5.9H12c-5,0-9,4-9,9c0,5,4,16,9,16c3.3,0,6.5-0.9,9.3-2.6L32,31l10.7,6.4c2.8,1.7,6,2.6,9.3,2.6   c5,0,9-11,9-16C61,19,57,15,52,15z"/>
	<circle class="st3" cx="32" cy="37" r="5"/>
	<path d="M52,14L52,14c-4.6,0.1-8.8,2-11.8,5.3C39,13.2,36.5,7.4,32.8,2.4c-0.4-0.4-1-0.5-1.5-0.2c-0.1,0-0.1,0.1-0.2,0.2   c-3.6,5-6.2,10.8-7.4,16.9c-3-3.3-7.3-5.2-11.7-5.3H12C6.5,14,2,18.5,2,24c0,4.8,3.9,16.7,9.8,17l-0.4,0.3c-4.1,4-7,9.1-8.3,14.8   L2,60.8c-0.1,0.5,0.2,1.1,0.7,1.2c0.1,0,0.1,0,0.2,0c0.1,0,0.2,0,0.2,0l4.5-1c4.8-1.1,9.3-3.4,13-6.7c0,0.2,0.1,0.4,0.2,0.5   c0.6,1,1.5,1.7,2.5,2c0.5,0.2,0.9,0.4,1.3,0.7c0.3,0.5,0.5,1,0.7,1.5c0.2,1.1,0.8,2,1.7,2.7c1.1,0.4,2.3,0.3,3.4-0.2   c0.5-0.2,1-0.3,1.5-0.4c0.5,0.1,1,0.2,1.5,0.4c0.7,0.3,1.4,0.5,2.1,0.5c0.4,0,0.8-0.1,1.2-0.3c0.9-0.6,1.5-1.6,1.7-2.7   c0.1-0.5,0.4-1.1,0.7-1.5c0.4-0.3,0.8-0.6,1.3-0.7c1.1-0.3,2-1,2.5-2c0.1-0.2,0.1-0.4,0.2-0.5c3.7,3.3,8.2,5.6,13,6.7l4.5,1   c0.1,0,0.1,0,0.2,0c0.6,0,1-0.4,1-1c0-0.1,0-0.2,0-0.2l-1.1-4.7c-1.3-5.6-4.2-10.8-8.3-14.8L52.2,41c5.9-0.3,9.8-12.1,9.8-17   C62,18.5,57.5,14,52,14z M32,45c-2,0-3.7-1.5-3.9-3.5c2.3,2,5.6,2,7.9,0C35.7,43.5,34,45,32,45z M32,41c-2.2,0-4-1.8-4-4s1.8-4,4-4   s4,1.8,4,4S34.2,41,32,41z M33,25V6.3c2.8,4.6,4.7,9.7,5.5,14.9L32,29.4l-6.5-8.1C26.3,16,28.2,10.9,31,6.3V25H33z M4,24   c0-4.4,3.6-8,8.1-8c0,0,0,0,0,0l0,0c4.4,0.1,8.4,2.1,11.1,5.6l6.1,7.7l-10-2.6c-3.5-0.9-6.3-3.5-7.4-7L10,20.3   c1.3,4.1,4.7,7.2,8.8,8.3l10.6,2.8l-8.7,5.2C18.1,38.2,15.1,39,12,39C7.9,39,4,28.7,4,24z M7.3,59l-1.1,0.3l11.5-11.5l-1.4-1.4   L4.8,57.8l0.3-1.3c1.2-5.2,3.9-10,7.8-13.8l2-2c2.1-0.3,4.1-1,5.9-1.9c0.1,0.5,0.2,0.9,0.3,1.4c0.2,0.5,0.3,1.1,0.3,1.7   c-0.2,0.5-0.5,0.9-0.8,1.3c-0.8,0.7-1.3,1.7-1.4,2.8c0.1,1.1,0.6,2.1,1.4,2.8c0.4,0.4,0.7,0.8,0.8,1.3c0,0.3,0,0.6-0.1,1   C17.5,55,12.6,57.8,7.3,59z M41.2,53.9c-0.2,0.4-0.9,0.7-1.5,1c-0.8,0.3-1.4,0.7-2,1.3c-0.5,0.7-0.8,1.4-1.1,2.2   c-0.2,0.6-0.4,1.4-0.7,1.5c-0.3,0.2-1.1-0.1-1.8-0.3c-0.7-0.3-1.4-0.5-2.1-0.5c-0.7,0-1.5,0.2-2.1,0.5c-0.7,0.2-1.4,0.5-1.8,0.3   c-0.3-0.2-0.5-0.9-0.7-1.5c-0.2-0.8-0.6-1.5-1.1-2.2c-0.6-0.6-1.2-1-2-1.3c-0.7-0.3-1.4-0.6-1.5-1c-0.1-0.6,0-1.1,0.2-1.6   c0.3-0.8,0.4-1.7,0.3-2.6c-0.2-0.8-0.7-1.5-1.3-2.2c-0.5-0.6-0.9-1.1-0.9-1.5s0.5-1,0.9-1.5c0.6-0.6,1-1.3,1.3-2.2   c0.1-0.9,0-1.8-0.3-2.6c-0.2-0.5-0.3-1.1-0.2-1.6c0.2-0.4,0.9-0.7,1.5-1c0.6-0.2,1.2-0.6,1.8-1C26,36.3,26,36.7,26,37v4   c0,2.9,2.1,5.4,5,5.9V55h2v-8.1c2.9-0.5,5-3,5-5.9v-4c0-0.3,0-0.7-0.1-1c0.5,0.4,1.1,0.8,1.8,1c0.7,0.3,1.4,0.6,1.5,1   c0.1,0.6,0,1.1-0.2,1.6c-0.3,0.8-0.4,1.7-0.3,2.6c0.2,0.8,0.7,1.5,1.3,2.2c0.5,0.6,0.9,1.1,0.9,1.5s-0.5,1-0.9,1.5   c-0.6,0.6-1,1.3-1.3,2.2c-0.1,0.9,0,1.8,0.3,2.6C41.2,52.8,41.3,53.4,41.2,53.9z M58.9,56.6l0.3,1.3L47.7,46.3l-1.4,1.4l11.5,11.5   L56.7,59c-5.3-1.2-10.2-4-13.9-7.9c-0.1-0.3-0.1-0.6-0.1-1c0.2-0.5,0.5-0.9,0.8-1.3c0.8-0.7,1.3-1.7,1.4-2.8   c-0.1-1.1-0.6-2.1-1.4-2.8c-0.4-0.4-0.7-0.8-0.8-1.3c0-0.6,0.1-1.1,0.3-1.7c0.1-0.4,0.2-0.9,0.3-1.4c1.8,1,3.8,1.6,5.9,1.9l2,2   C55,46.5,57.7,51.3,58.9,56.6z M52,39c-3.1,0-6.1-0.8-8.8-2.4l-8.7-5.2l10.6-2.8c4.1-1.1,7.5-4.2,8.8-8.3L52,19.7   c-1.1,3.4-3.9,6-7.4,7l-10,2.6l6.1-7.7c2.7-3.5,6.8-5.5,11.2-5.6c4.4,0,8,3.6,8,8C60,28.7,56.1,39,52,39z"/>
</g>
</svg>
